<?xml version="1.0" encoding="utf-8"?>
<!-- Generator: Adobe Illustrator 27.0.1, SVG Export Plug-In . SVG Version: 6.00 Build 0)  -->
<svg version="1.1" id="Topbar_FS_COLOR" xmlns="http://www.w3.org/2000/svg" xmlns:xlink="http://www.w3.org/1999/xlink" x="0px"
	 y="0px" viewBox="0 0 1079.9 382" style="enable-background:new 0 0 1079.9 382;" xml:space="preserve">
<style type="text/css">
	.st0{fill:#333333;}
	.st1{fill:url(#SVGID_1_);}
	.st2{fill:url(#SVGID_00000141430395827611400480000014478179427976953740_);}
</style>
<g>
	<path class="st0" d="M380.9,112.1v29.7h51.9v20.8h-51.9v40.9h-26V91.3h84.9v20.8H380.9z M495,116v23.1c-2.1-0.1-3.7-0.4-5.6-0.4
		c-13.8,0-23,7.6-23,24v40.7h-25v-86.3h23.9v11.4C471.4,120.3,481.8,116,495,116z M587.9,117.3v86.3h-23.6v-10.2
		c-6.6,7.6-16.2,11.5-26.8,11.5c-21.6,0-36.9-12.1-36.9-38.8v-48.8h25v45.1c0,14.4,6.4,20.8,17.4,20.8c11.5,0,19.8-7.3,19.8-23.3
		v-42.7L587.9,117.3L587.9,117.3z M595.9,91.3c0-7.8,6.3-13.9,15.5-13.9c9.4,0,15.5,5.8,15.5,13.5c0,8.3-6.3,14.4-15.5,14.4
		C602.2,105.3,595.9,99.2,595.9,91.3z M599,117.3h25v86.3h-25V117.3z M697.2,199.4c-5.2,3.7-12.6,5.4-20.3,5.4
		c-20.3,0-32.2-10.5-32.2-31v-35.5h-13.4v-19.2h13.3v-21h25v21H691v19.2h-21.5v35.1c0,7.3,4,11.4,10.7,11.4c3.7,0,7.3-1.1,10.1-3.2
		L697.2,199.4z M337.6,334.6l8.8-19.6c9.5,6.9,23.6,11.8,37,11.8c15.4,0,21.6-5.2,21.6-12c0-21-65.3-6.6-65.3-48.3
		c0-19.1,15.4-35,47.3-35c14.2,0,28.6,3.4,38.9,10l-8,19.7c-10.5-5.9-21.2-8.8-31.1-8.8c-15.4,0-21.4,5.8-21.4,12.9
		c0,20.7,65.3,6.4,65.3,47.6c0,18.8-15.5,34.7-47.6,34.7C365.5,347.6,347.6,342.3,337.6,334.6z M434.6,302.5
		c0-26,20.1-44.5,47.5-44.5s47.3,18.4,47.3,44.5S509.6,347,482.1,347C454.6,347,434.6,328.6,434.6,302.5z M504,302.5
		c0-14.9-9.5-23.9-22-23.9c-12.5,0-22.1,9-22.1,23.9s9.6,23.9,22.1,23.9C494.6,326.4,504,317.4,504,302.5z M566.7,261.3h22.1v19.2
		h-21.5v65.1h-25v-65.1H529v-19.2h13.3v-3.8c0-19.5,11.9-32.1,33.4-32.1c7.1,0,14.4,1.4,19.1,4.7l-6.6,18.1c-2.8-1.9-6.3-3-10.1-3
		c-7.3,0-11.4,4-11.4,12.5V261.3z M654.5,341.6c-5.2,3.7-12.6,5.4-20.3,5.4c-20.3,0-32.2-10.5-32.2-31v-35.5h-13.3v-19.2h13.3v-21
		h25v21h21.5v19.2h-21.5v35.1c0,7.3,4,11.4,10.7,11.4c3.7,0,7.3-1.1,10.1-3.2L654.5,341.6z M801.1,259.4l-31.3,86.3h-24l-19.5-53.6
		l-20.1,53.6h-24l-31.1-86.3h23.6l20.3,58.4l21.2-58.4h21.1l20.5,58.4l21-58.4L801.1,259.4L801.1,259.4z M881.8,296.5v49.3h-23.4
		V335c-4.7,7.8-13.6,12-26.3,12c-20.2,0-32.2-11.2-32.2-26.2c0-15.3,10.7-25.8,37-25.8h19.8c0-10.7-6.4-17.1-19.8-17.1
		c-9.1,0-18.6,3-24.9,8l-9-17.4c9.5-6.7,23.4-10.5,37.3-10.5C866.5,258.1,881.8,270.3,881.8,296.5z M856.8,318.5v-8.8h-17.2
		c-11.8,0-15.4,4.3-15.4,10.1c0,6.3,5.3,10.5,14.2,10.5C846.7,330.1,853.9,326.3,856.8,318.5z M949.5,258.1v23.1
		c-2.1-0.1-3.7-0.4-5.6-0.4c-13.8,0-23,7.6-23,24v40.7h-25v-86.3h23.9v11.4C925.9,262.5,936.3,258.1,949.5,258.1z M1039.6,309.6
		h-65.3c2.4,10.7,11.5,17.3,24.6,17.3c9.1,0,15.7-2.8,21.6-8.3l13.3,14.4c-8,9.1-20.1,13.9-35.6,13.9c-29.8,0-49.3-18.8-49.3-44.5
		c0-25.8,19.7-44.5,46-44.5c25.4,0,44.9,17.1,44.9,44.7C1040.1,304.8,1039.8,307.5,1039.6,309.6z M974.1,294.9h42.5
		c-1.8-10.9-10-17.9-21.2-17.9C984,277,975.8,284,974.1,294.9z"/>
	<g>
		
			<linearGradient id="SVGID_1_" gradientUnits="userSpaceOnUse" x1="53.4147" y1="-2357.9751" x2="263.4983" y2="-2107.6072" gradientTransform="matrix(1 0 0 1 0 2410)">
			<stop  offset="0" style="stop-color:#00CEC3"/>
			<stop  offset="2.590749e-03" style="stop-color:#00CFC3"/>
			<stop  offset="0.1499" style="stop-color:#00E8D4"/>
			<stop  offset="0.238" style="stop-color:#00F2DA"/>
			<stop  offset="0.7513" style="stop-color:#00CEC3"/>
			<stop  offset="0.7794" style="stop-color:#00DACB"/>
			<stop  offset="0.8279" style="stop-color:#00E8D3"/>
			<stop  offset="0.8887" style="stop-color:#00F0D8"/>
			<stop  offset="1" style="stop-color:#00F2DA"/>
		</linearGradient>
		<path class="st1" d="M151.9,104c-6.8,1.2-24.5,3.5-42.3-6C87.7,86.2,74.6,61.2,75.3,33.6c30.9-4.3,59.4,8.5,71.5,31.2
			C155.2,80.7,153.3,96.8,151.9,104z M190.1,61.8c15.5-20.4,7-45.5,6.2-47.7c-18.6,3.7-33.1,16.9-36.8,33.5
			c-3.4,15.2,3.4,27.6,5.4,31C169.8,77.3,181.5,73.2,190.1,61.8z M96.3,239.2c-8.1-10.4-14.3-16.7-24.6-24.7c-1.6-1.2-4.4-1.2-6,0
			c-10.4,8.1-16.7,14.3-24.7,24.6c-1.2,1.6-1.2,4.4,0,6c8.1,10.4,14.3,16.7,24.6,24.7c1.6,1.2,4.4,1.2,6,0
			c10.4-8.1,16.7-14.3,24.7-24.6C97.5,243.6,97.5,240.8,96.3,239.2z M254,143.3c-7.8-10-13.9-16.2-23.9-24c-1.7-1.3-4.8-1.3-6.5,0
			c-10,7.8-16.2,13.9-24,23.9c-1.3,1.7-1.3,4.8,0,6.5c7.8,10,13.9,16.2,23.9,24c1.7,1.3,4.8,1.3,6.5,0c10-7.8,16.2-13.9,24-23.9
			C255.3,148.1,255.3,145,254,143.3z M206.1,107.8c-6.2-8-11.1-13-19.1-19.2c-1.5-1.2-4.3-1.2-5.9,0c-8,6.2-13,11.1-19.2,19.1
			c-1.2,1.5-1.2,4.3,0,5.9c6.2,8,11.1,13,19.1,19.2c1.5,1.2,4.3,1.2,5.9,0c8-6.2,13-11.1,19.2-19.1
			C207.3,112.1,207.3,109.4,206.1,107.8z M192.7,335.9c-7-9-12.8-14.8-21.7-21.8c-2.3-1.8-6.6-1.8-8.9,0c-9,7-14.8,12.8-21.8,21.7
			c-1.8,2.3-1.8,6.6,0,8.9c7,9,12.8,14.8,21.7,21.8c2.3,1.8,6.6,1.8,8.9,0c9-7,14.8-12.8,21.8-21.7
			C194.4,342.5,194.4,338.2,192.7,335.9z M207.2,266.2c-8.4-10.8-14.9-17.4-25.7-25.8c-1.6-1.2-4.6-1.2-6.2,0
			c-10.8,8.4-17.4,14.9-25.8,25.7c-1.2,1.6-1.2,4.6,0,6.2c8.4,10.8,14.9,17.4,25.7,25.8c1.6,1.2,4.6,1.2,6.2,0
			c10.8-8.4,17.4-14.9,25.8-25.7C208.5,270.8,208.5,267.9,207.2,266.2z M286.7,275.6c-5.6-7.2-9.9-11.6-17.1-17.1
			c-1.2-0.9-3.3-0.9-4.5,0c-7.2,5.6-11.6,9.9-17.1,17.1c-0.9,1.2-0.9,3.3,0,4.5c5.6,7.2,9.9,11.6,17.1,17.1c1.2,0.9,3.3,0.9,4.5,0
			c7.2-5.6,11.6-9.9,17.1-17.1C287.6,278.9,287.6,276.8,286.7,275.6z"/>
		
			<linearGradient id="SVGID_00000152978874582949955660000012012907783327190939_" gradientUnits="userSpaceOnUse" x1="204.7783" y1="-2061.2808" x2="150.7994" y2="-2295.0891" gradientTransform="matrix(1 0 0 1 0 2410)">
			<stop  offset="0.55" style="stop-color:#569FD3"/>
			<stop  offset="0.7071" style="stop-color:#63BAF2"/>
			<stop  offset="0.8" style="stop-color:#69C6FF"/>
		</linearGradient>
		<path style="fill:url(#SVGID_00000152978874582949955660000012012907783327190939_);" d="M203,189.2
			C183.7,214,169,228.6,144,247.8c-2.9,2.2-7.9,2.2-10.7,0c-24.8-19.2-39.4-33.9-58.6-58.9c-2.2-2.9-2.2-7.9,0-10.7
			c19.2-24.8,33.9-39.4,58.9-58.6c2.9-2.2,7.9-2.2,10.7,0c24.8,19.2,39.4,33.9,58.6,58.9C205.2,181.3,205.2,186.3,203,189.2z
			 M255.2,309.3c-8.3-10.8-14.9-17.4-25.7-25.8c-2-1.5-5.6-1.5-7.5,0c-10.8,8.3-17.4,14.9-25.8,25.7c-1.5,2-1.5,5.6,0,7.5
			c8.3,10.8,14.9,17.4,25.7,25.8c2,1.5,5.6,1.5,7.5,0c10.8-8.3,17.4-14.9,25.8-25.7C256.8,314.9,256.8,311.3,255.2,309.3z
			 M272.6,223.7c-11.1-14.3-19.6-23-33.9-34.1c-2.2-1.7-6.1-1.7-8.3,0c-14.3,11.1-23,19.6-34.1,33.9c-1.7,2.2-1.7,6.1,0,8.3
			c11.1,14.3,19.6,23,33.9,34.1c2.2,1.7,6.1,1.7,8.3,0c14.3-11.1,23-19.6,34.1-33.9C274.3,229.8,274.3,225.9,272.6,223.7z
			 M147.2,293.1c-10.2-13.2-18.3-21.3-31.4-31.6c-2.4-1.9-6.8-1.9-9.3,0C93.3,271.8,85.2,279.8,75,293c-1.9,2.4-1.9,6.8,0,9.3
			c10.2,13.2,18.3,21.3,31.4,31.6c2.4,1.9,6.8,1.9,9.3,0c13.2-10.2,21.3-18.3,31.6-31.4C149.1,299.9,149.1,295.6,147.2,293.1z
			 M284.4,176.3c-5.3-6.8-9.4-10.9-16.1-16.2c-1-0.7-2.7-0.7-3.6,0c-6.8,5.3-10.9,9.4-16.2,16.1c-0.7,1-0.7,2.7,0,3.6
			c5.3,6.8,9.4,10.9,16.1,16.2c1,0.7,2.7,0.7,3.6,0c6.8-5.3,10.9-9.4,16.2-16.1C285.1,178.9,285.1,177.2,284.4,176.3z"/>
	</g>
</g>
</svg>
